<?xml version="1.0" encoding="iso-8859-1"?>
<!-- Generator: Adobe Illustrator 16.0.0, SVG Export Plug-In . SVG Version: 6.00 Build 0)  -->
<!DOCTYPE svg PUBLIC "-//W3C//DTD SVG 1.1//EN" "http://www.w3.org/Graphics/SVG/1.1/DTD/svg11.dtd">
<svg version="1.1" id="Capa_1" xmlns="http://www.w3.org/2000/svg" xmlns:xlink="http://www.w3.org/1999/xlink" x="0px" y="0px"
	 width="612px" height="612px" viewBox="0 0 612 612" style="enable-background:new 0 0 612 612;" xml:space="preserve">
<g>
	<g>
		<g id="Trophy">
			<g>
				<path d="M135.235,340.748c0.204,0,0.476-0.034,0.765-0.085V340C134.657,340.561,134.725,340.748,135.235,340.748z M272,510h-34
					c-37.553,0-68,30.447-68,68h272c0-37.553-30.447-68-68-68h-34v-68h-34h-34V510z M476.765,340.748
					c0.512,0,0.562-0.188-0.765-0.748v0.663C476.289,340.714,476.561,340.748,476.765,340.748z M578,102H476V68
					c0-18.785-15.215-34-34-34H170c-18.785,0-34,15.215-34,34v34H34c-18.785,0-34,15.215-34,34v68c0,54.655,36.227,136,136,136
					h14.246C176.494,400.027,236.317,442,306,442c69.7,0,129.523-41.973,155.754-102H476c99.773,0,136-81.345,136-136v-68
					C612,117.215,596.785,102,578,102z M136,272c-62.084,0-67.728-52.224-68-68v-34h68V272z M408,293.216l-8.551,19.55
					C383.18,349.962,346.511,374,306,374s-77.18-24.038-93.449-61.234L204,293.216V102h204V293.216z M544,204
					c0,11.356-3.281,68-68,68V170h68V204z"/>
			</g>
		</g>
	</g>
</g>
</svg>
